<mxfile host="65bd71144e">
    <diagram name="페이지-1" id="1zRKgmUaXTxRe6Tk9ieO">
        <mxGraphModel dx="1038" dy="547" grid="1" gridSize="10" guides="1" tooltips="1" connect="1" arrows="1" fold="1" page="1" pageScale="1" pageWidth="827" pageHeight="1169" math="0" shadow="0">
            <root>
                <mxCell id="0"/>
                <mxCell id="1" parent="0"/>
                <mxCell id="38" value="Server contents" style="points=[[0,0],[0.25,0],[0.5,0],[0.75,0],[1,0],[1,0.25],[1,0.5],[1,0.75],[1,1],[0.75,1],[0.5,1],[0.25,1],[0,1],[0,0.75],[0,0.5],[0,0.25]];outlineConnect=0;gradientColor=none;html=1;whiteSpace=wrap;fontSize=12;fontStyle=0;container=1;pointerEvents=0;collapsible=0;recursiveResize=0;shape=mxgraph.aws4.group;grIcon=mxgraph.aws4.group_on_premise;strokeColor=#5A6C86;fillColor=none;verticalAlign=top;align=left;spacingLeft=30;fontColor=#5A6C86;dashed=0;" parent="1" vertex="1">
                    <mxGeometry x="67" y="424" width="283" height="396" as="geometry"/>
                </mxCell>
                <mxCell id="HX1PcJEUQ6J4BHZRip1N-5" value="User Client" style="fillColor=#EFF0F3;strokeColor=none;dashed=0;verticalAlign=top;fontStyle=0;fontColor=#232F3D;whiteSpace=wrap;html=1;" parent="1" vertex="1">
                    <mxGeometry x="40" y="40" width="320" height="120" as="geometry"/>
                </mxCell>
                <mxCell id="HX1PcJEUQ6J4BHZRip1N-1" value="DNS" style="fillColor=#EFF0F3;strokeColor=none;dashed=0;verticalAlign=top;fontStyle=0;fontColor=#232F3D;whiteSpace=wrap;html=1;" parent="1" vertex="1">
                    <mxGeometry x="520" y="40" width="200" height="80" as="geometry"/>
                </mxCell>
                <mxCell id="HX1PcJEUQ6J4BHZRip1N-2" value="" style="image;sketch=0;aspect=fixed;html=1;points=[];align=center;fontSize=12;image=img/lib/mscae/DNS.svg;" parent="1" vertex="1">
                    <mxGeometry x="595" y="64" width="50" height="50" as="geometry"/>
                </mxCell>
                <mxCell id="HX1PcJEUQ6J4BHZRip1N-3" value="" style="sketch=0;outlineConnect=0;fontColor=#232F3E;gradientColor=none;fillColor=#232F3D;strokeColor=none;dashed=0;verticalLabelPosition=bottom;verticalAlign=top;align=center;html=1;fontSize=12;fontStyle=0;aspect=fixed;pointerEvents=1;shape=mxgraph.aws4.mobile_client;" parent="1" vertex="1">
                    <mxGeometry x="250" y="66" width="41" height="78" as="geometry"/>
                </mxCell>
                <mxCell id="HX1PcJEUQ6J4BHZRip1N-4" value="" style="sketch=0;outlineConnect=0;fontColor=#232F3E;gradientColor=none;fillColor=#232F3D;strokeColor=none;dashed=0;verticalLabelPosition=bottom;verticalAlign=top;align=center;html=1;fontSize=12;fontStyle=0;aspect=fixed;pointerEvents=1;shape=mxgraph.aws4.client;" parent="1" vertex="1">
                    <mxGeometry x="100" y="68" width="78" height="76" as="geometry"/>
                </mxCell>
                <mxCell id="HX1PcJEUQ6J4BHZRip1N-6" value="AWS Cloud" style="points=[[0,0],[0.25,0],[0.5,0],[0.75,0],[1,0],[1,0.25],[1,0.5],[1,0.75],[1,1],[0.75,1],[0.5,1],[0.25,1],[0,1],[0,0.75],[0,0.5],[0,0.25]];outlineConnect=0;gradientColor=none;html=1;whiteSpace=wrap;fontSize=12;fontStyle=0;container=1;pointerEvents=0;collapsible=0;recursiveResize=0;shape=mxgraph.aws4.group;grIcon=mxgraph.aws4.group_aws_cloud;strokeColor=#232F3E;fillColor=none;verticalAlign=top;align=left;spacingLeft=30;fontColor=#232F3E;dashed=0;" parent="1" vertex="1">
                    <mxGeometry x="20" y="239" width="780" height="1031" as="geometry"/>
                </mxCell>
                <mxCell id="95" value="Tools group" style="fillColor=#EFF0F3;strokeColor=none;dashed=0;verticalAlign=top;fontStyle=0;fontColor=#232F3D;" parent="HX1PcJEUQ6J4BHZRip1N-6" vertex="1">
                    <mxGeometry x="20" y="935" width="290" height="91" as="geometry"/>
                </mxCell>
                <mxCell id="HX1PcJEUQ6J4BHZRip1N-8" value="Region" style="points=[[0,0],[0.25,0],[0.5,0],[0.75,0],[1,0],[1,0.25],[1,0.5],[1,0.75],[1,1],[0.75,1],[0.5,1],[0.25,1],[0,1],[0,0.75],[0,0.5],[0,0.25]];outlineConnect=0;gradientColor=none;html=1;whiteSpace=wrap;fontSize=12;fontStyle=0;container=1;pointerEvents=0;collapsible=0;recursiveResize=0;shape=mxgraph.aws4.group;grIcon=mxgraph.aws4.group_region;strokeColor=#00A4A6;fillColor=none;verticalAlign=top;align=left;spacingLeft=30;fontColor=#147EBA;dashed=1;" parent="HX1PcJEUQ6J4BHZRip1N-6" vertex="1">
                    <mxGeometry x="20" y="92" width="350" height="828" as="geometry"/>
                </mxCell>
                <mxCell id="41" value="Auto Scaling group" style="points=[[0,0],[0.25,0],[0.5,0],[0.75,0],[1,0],[1,0.25],[1,0.5],[1,0.75],[1,1],[0.75,1],[0.5,1],[0.25,1],[0,1],[0,0.75],[0,0.5],[0,0.25]];outlineConnect=0;gradientColor=none;html=1;whiteSpace=wrap;fontSize=12;fontStyle=0;container=1;pointerEvents=0;collapsible=0;recursiveResize=0;shape=mxgraph.aws4.groupCenter;grIcon=mxgraph.aws4.group_auto_scaling_group;grStroke=1;strokeColor=#D86613;fillColor=none;verticalAlign=top;align=center;fontColor=#D86613;dashed=1;spacingTop=25;" parent="HX1PcJEUQ6J4BHZRip1N-8" vertex="1">
                    <mxGeometry x="4.5" y="121" width="330" height="359" as="geometry"/>
                </mxCell>
                <mxCell id="73" value="EC2 instance contents" style="points=[[0,0],[0.25,0],[0.5,0],[0.75,0],[1,0],[1,0.25],[1,0.5],[1,0.75],[1,1],[0.75,1],[0.5,1],[0.25,1],[0,1],[0,0.75],[0,0.5],[0,0.25]];outlineConnect=0;gradientColor=none;html=1;whiteSpace=wrap;fontSize=12;fontStyle=0;container=1;pointerEvents=0;collapsible=0;recursiveResize=0;shape=mxgraph.aws4.group;grIcon=mxgraph.aws4.group_ec2_instance_contents;strokeColor=#D86613;fillColor=none;verticalAlign=top;align=left;spacingLeft=30;fontColor=#D86613;dashed=0;" parent="41" vertex="1">
                    <mxGeometry x="181.41" y="218" width="100" height="130" as="geometry"/>
                </mxCell>
                <mxCell id="74" value="Batch Server" style="sketch=0;outlineConnect=0;fontColor=#232F3E;gradientColor=none;fillColor=#D45B07;strokeColor=none;dashed=0;verticalLabelPosition=bottom;verticalAlign=top;align=center;html=1;fontSize=12;fontStyle=0;aspect=fixed;pointerEvents=1;shape=mxgraph.aws4.instance2;" parent="73" vertex="1">
                    <mxGeometry x="26.000000000000014" y="61" width="48" height="48" as="geometry"/>
                </mxCell>
                <mxCell id="77" value="SQS Queue" style="sketch=0;points=[[0,0,0],[0.25,0,0],[0.5,0,0],[0.75,0,0],[1,0,0],[0,1,0],[0.25,1,0],[0.5,1,0],[0.75,1,0],[1,1,0],[0,0.25,0],[0,0.5,0],[0,0.75,0],[1,0.25,0],[1,0.5,0],[1,0.75,0]];outlineConnect=0;fontColor=#232F3E;gradientColor=#FF4F8B;gradientDirection=north;fillColor=#BC1356;strokeColor=#ffffff;dashed=0;verticalLabelPosition=bottom;verticalAlign=top;align=center;html=1;fontSize=12;fontStyle=0;aspect=fixed;shape=mxgraph.aws4.resourceIcon;resIcon=mxgraph.aws4.sqs;" parent="41" vertex="1">
                    <mxGeometry x="57.5" y="244" width="46" height="46" as="geometry"/>
                </mxCell>
                <mxCell id="83" value="" style="edgeStyle=orthogonalEdgeStyle;html=1;endArrow=block;elbow=vertical;startArrow=none;endFill=1;strokeColor=#545B64;rounded=0;exitX=1;exitY=0.5;exitDx=0;exitDy=0;entryX=0;entryY=0.5;entryDx=0;entryDy=0;exitPerimeter=0;" parent="41" source="77" target="73" edge="1">
                    <mxGeometry width="100" relative="1" as="geometry">
                        <mxPoint x="241.40999999999997" y="187" as="sourcePoint"/>
                        <mxPoint x="90.5" y="254" as="targetPoint"/>
                        <Array as="points">
                            <mxPoint x="126" y="267"/>
                            <mxPoint x="126" y="283"/>
                        </Array>
                    </mxGeometry>
                </mxCell>
                <mxCell id="88" value="1" style="ellipse;whiteSpace=wrap;html=1;aspect=fixed;strokeWidth=2;fontFamily=Tahoma;spacingBottom=4;spacingRight=2;strokeColor=#d79b00;fillColor=#ffe6cc;fontStyle=1" parent="41" vertex="1">
                    <mxGeometry x="95.5" y="208" width="20" height="20" as="geometry"/>
                </mxCell>
                <mxCell id="HX1PcJEUQ6J4BHZRip1N-9" value="EC2 instance contents" style="points=[[0,0],[0.25,0],[0.5,0],[0.75,0],[1,0],[1,0.25],[1,0.5],[1,0.75],[1,1],[0.75,1],[0.5,1],[0.25,1],[0,1],[0,0.75],[0,0.5],[0,0.25]];outlineConnect=0;gradientColor=none;html=1;whiteSpace=wrap;fontSize=12;fontStyle=0;container=1;pointerEvents=0;collapsible=0;recursiveResize=0;shape=mxgraph.aws4.group;grIcon=mxgraph.aws4.group_ec2_instance_contents;strokeColor=#D86613;fillColor=none;verticalAlign=top;align=left;spacingLeft=30;fontColor=#D86613;dashed=0;" parent="HX1PcJEUQ6J4BHZRip1N-8" vertex="1">
                    <mxGeometry x="47" y="169" width="100" height="130" as="geometry"/>
                </mxCell>
                <mxCell id="3" value="Server" style="sketch=0;outlineConnect=0;fontColor=#232F3E;gradientColor=none;fillColor=#D45B07;strokeColor=none;dashed=0;verticalLabelPosition=bottom;verticalAlign=top;align=center;html=1;fontSize=12;fontStyle=0;aspect=fixed;pointerEvents=1;shape=mxgraph.aws4.instance2;" parent="HX1PcJEUQ6J4BHZRip1N-9" vertex="1">
                    <mxGeometry x="26.000000000000014" y="61" width="48" height="48" as="geometry"/>
                </mxCell>
                <mxCell id="HX1PcJEUQ6J4BHZRip1N-18" value="&lt;div style=&quot;&quot;&gt;&lt;span style=&quot;background-color: initial;&quot;&gt;&amp;nbsp; &amp;nbsp; &amp;nbsp; &amp;nbsp; &amp;nbsp; Database&lt;/span&gt;&lt;/div&gt;" style="fillColor=none;strokeColor=#FF33FF;verticalAlign=top;fontStyle=0;fontColor=#5A6C86;whiteSpace=wrap;html=1;align=left;" parent="HX1PcJEUQ6J4BHZRip1N-8" vertex="1">
                    <mxGeometry x="48" y="512" width="240" height="130" as="geometry"/>
                </mxCell>
                <mxCell id="HX1PcJEUQ6J4BHZRip1N-19" value="" style="sketch=0;points=[[0,0,0],[0.25,0,0],[0.5,0,0],[0.75,0,0],[1,0,0],[0,1,0],[0.25,1,0],[0.5,1,0],[0.75,1,0],[1,1,0],[0,0.25,0],[0,0.5,0],[0,0.75,0],[1,0.25,0],[1,0.5,0],[1,0.75,0]];outlineConnect=0;fontColor=#232F3E;fillColor=#C925D1;strokeColor=#ffffff;dashed=0;verticalLabelPosition=bottom;verticalAlign=top;align=center;html=1;fontSize=12;fontStyle=0;aspect=fixed;shape=mxgraph.aws4.resourceIcon;resIcon=mxgraph.aws4.database;" parent="HX1PcJEUQ6J4BHZRip1N-8" vertex="1">
                    <mxGeometry x="48" y="512" width="30" height="30" as="geometry"/>
                </mxCell>
                <mxCell id="HX1PcJEUQ6J4BHZRip1N-21" value="Master" style="sketch=0;outlineConnect=0;fontColor=#232F3E;gradientColor=none;fillColor=#C925D1;strokeColor=none;dashed=0;verticalLabelPosition=top;verticalAlign=bottom;align=center;html=1;fontSize=12;fontStyle=0;aspect=fixed;pointerEvents=1;shape=mxgraph.aws4.rds_postgresql_instance;labelPosition=center;" parent="HX1PcJEUQ6J4BHZRip1N-8" vertex="1">
                    <mxGeometry x="81" y="554" width="54" height="54" as="geometry"/>
                </mxCell>
                <mxCell id="2" value="Load Balancer" style="outlineConnect=0;dashed=0;verticalLabelPosition=bottom;verticalAlign=top;align=center;html=1;shape=mxgraph.aws3.application_load_balancer;fillColor=#F58534;gradientColor=none;" parent="HX1PcJEUQ6J4BHZRip1N-8" vertex="1">
                    <mxGeometry x="144.08" y="10" width="49.83" height="52" as="geometry"/>
                </mxCell>
                <mxCell id="4" value="EC2 instance contents" style="points=[[0,0],[0.25,0],[0.5,0],[0.75,0],[1,0],[1,0.25],[1,0.5],[1,0.75],[1,1],[0.75,1],[0.5,1],[0.25,1],[0,1],[0,0.75],[0,0.5],[0,0.25]];outlineConnect=0;gradientColor=none;html=1;whiteSpace=wrap;fontSize=12;fontStyle=0;container=1;pointerEvents=0;collapsible=0;recursiveResize=0;shape=mxgraph.aws4.group;grIcon=mxgraph.aws4.group_ec2_instance_contents;strokeColor=#D86613;fillColor=none;verticalAlign=top;align=left;spacingLeft=30;fontColor=#D86613;dashed=0;" parent="HX1PcJEUQ6J4BHZRip1N-8" vertex="1">
                    <mxGeometry x="185.91" y="168" width="100" height="130" as="geometry"/>
                </mxCell>
                <mxCell id="5" value="Server" style="sketch=0;outlineConnect=0;fontColor=#232F3E;gradientColor=none;fillColor=#D45B07;strokeColor=none;dashed=0;verticalLabelPosition=bottom;verticalAlign=top;align=center;html=1;fontSize=12;fontStyle=0;aspect=fixed;pointerEvents=1;shape=mxgraph.aws4.instance2;" parent="4" vertex="1">
                    <mxGeometry x="26.000000000000014" y="61" width="48" height="48" as="geometry"/>
                </mxCell>
                <mxCell id="6" value="" style="edgeStyle=orthogonalEdgeStyle;html=1;endArrow=block;elbow=vertical;startArrow=block;startFill=1;endFill=1;strokeColor=#545B64;rounded=0;exitX=0;exitY=0.5;exitDx=0;exitDy=0;entryX=0.5;entryY=0;entryDx=0;entryDy=0;exitPerimeter=0;" parent="HX1PcJEUQ6J4BHZRip1N-8" source="2" target="HX1PcJEUQ6J4BHZRip1N-9" edge="1">
                    <mxGeometry width="100" relative="1" as="geometry">
                        <mxPoint x="150" y="-70" as="sourcePoint"/>
                        <mxPoint x="149.9949999999999" y="20" as="targetPoint"/>
                    </mxGeometry>
                </mxCell>
                <mxCell id="7" value="" style="edgeStyle=orthogonalEdgeStyle;html=1;endArrow=block;elbow=vertical;startArrow=block;startFill=1;endFill=1;strokeColor=#545B64;rounded=0;exitX=0.5;exitY=0;exitDx=0;exitDy=0;entryX=1;entryY=0.5;entryDx=0;entryDy=0;entryPerimeter=0;" parent="HX1PcJEUQ6J4BHZRip1N-8" source="4" target="2" edge="1">
                    <mxGeometry width="100" relative="1" as="geometry">
                        <mxPoint x="125.07999999999993" y="46" as="sourcePoint"/>
                        <mxPoint x="82" y="92" as="targetPoint"/>
                    </mxGeometry>
                </mxCell>
                <mxCell id="10" value="Slave" style="sketch=0;outlineConnect=0;fontColor=#232F3E;gradientColor=none;fillColor=#C925D1;strokeColor=none;dashed=0;verticalLabelPosition=top;verticalAlign=bottom;align=center;html=1;fontSize=12;fontStyle=0;aspect=fixed;pointerEvents=1;shape=mxgraph.aws4.rds_postgresql_instance;labelPosition=center;" parent="HX1PcJEUQ6J4BHZRip1N-8" vertex="1">
                    <mxGeometry x="201" y="554" width="54" height="54" as="geometry"/>
                </mxCell>
                <mxCell id="12" value="Sync" style="edgeStyle=orthogonalEdgeStyle;html=1;endArrow=block;elbow=vertical;startArrow=block;startFill=1;endFill=1;strokeColor=#545B64;rounded=0;" parent="HX1PcJEUQ6J4BHZRip1N-8" source="HX1PcJEUQ6J4BHZRip1N-21" target="10" edge="1">
                    <mxGeometry width="100" relative="1" as="geometry">
                        <mxPoint x="-72" y="542" as="sourcePoint"/>
                        <mxPoint x="28" y="542" as="targetPoint"/>
                    </mxGeometry>
                </mxCell>
                <mxCell id="14" value="" style="html=1;endArrow=block;elbow=vertical;startArrow=none;endFill=1;strokeColor=#545B64;rounded=0;exitX=0.25;exitY=1;exitDx=0;exitDy=0;" parent="HX1PcJEUQ6J4BHZRip1N-8" source="HX1PcJEUQ6J4BHZRip1N-18" edge="1">
                    <mxGeometry width="100" relative="1" as="geometry">
                        <mxPoint x="-72" y="542" as="sourcePoint"/>
                        <mxPoint x="228" y="612" as="targetPoint"/>
                    </mxGeometry>
                </mxCell>
                <mxCell id="16" value="Write" style="edgeStyle=orthogonalEdgeStyle;html=1;endArrow=block;elbow=vertical;startArrow=none;endFill=1;strokeColor=#545B64;rounded=0;exitX=0.25;exitY=1;exitDx=0;exitDy=0;" parent="HX1PcJEUQ6J4BHZRip1N-8" source="HX1PcJEUQ6J4BHZRip1N-18" edge="1">
                    <mxGeometry width="100" relative="1" as="geometry">
                        <mxPoint x="-72" y="542" as="sourcePoint"/>
                        <mxPoint x="108" y="612" as="targetPoint"/>
                        <Array as="points">
                            <mxPoint x="108" y="612"/>
                            <mxPoint x="108" y="612"/>
                        </Array>
                    </mxGeometry>
                </mxCell>
                <mxCell id="32" value="Redis Cache" style="sketch=0;points=[[0,0,0],[0.25,0,0],[0.5,0,0],[0.75,0,0],[1,0,0],[0,1,0],[0.25,1,0],[0.5,1,0],[0.75,1,0],[1,1,0],[0,0.25,0],[0,0.5,0],[0,0.75,0],[1,0.25,0],[1,0.5,0],[1,0.75,0]];outlineConnect=0;fontColor=#232F3E;gradientColor=#4D72F3;gradientDirection=north;fillColor=#3334B9;strokeColor=#ffffff;dashed=0;verticalLabelPosition=bottom;verticalAlign=top;align=center;html=1;fontSize=12;fontStyle=0;aspect=fixed;shape=mxgraph.aws4.resourceIcon;resIcon=mxgraph.aws4.memorydb_for_redis;" parent="HX1PcJEUQ6J4BHZRip1N-8" vertex="1">
                    <mxGeometry x="140" y="730" width="49" height="49" as="geometry"/>
                </mxCell>
                <mxCell id="81" value="" style="edgeStyle=orthogonalEdgeStyle;html=1;endArrow=block;elbow=vertical;startArrow=none;endFill=1;strokeColor=#545B64;rounded=0;exitX=0.5;exitY=1;exitDx=0;exitDy=0;entryX=0.5;entryY=0;entryDx=0;entryDy=0;entryPerimeter=0;" parent="HX1PcJEUQ6J4BHZRip1N-8" source="HX1PcJEUQ6J4BHZRip1N-9" target="77" edge="1">
                    <mxGeometry width="100" relative="1" as="geometry">
                        <mxPoint x="370" y="299" as="sourcePoint"/>
                        <mxPoint x="470" y="299" as="targetPoint"/>
                        <Array as="points">
                            <mxPoint x="97" y="319"/>
                            <mxPoint x="85" y="319"/>
                        </Array>
                    </mxGeometry>
                </mxCell>
                <mxCell id="82" value="" style="edgeStyle=orthogonalEdgeStyle;html=1;endArrow=block;elbow=vertical;startArrow=none;endFill=1;strokeColor=#545B64;rounded=0;exitX=0.5;exitY=1;exitDx=0;exitDy=0;entryX=0.5;entryY=0;entryDx=0;entryDy=0;entryPerimeter=0;" parent="HX1PcJEUQ6J4BHZRip1N-8" source="4" target="77" edge="1">
                    <mxGeometry width="100" relative="1" as="geometry">
                        <mxPoint x="107" y="309" as="sourcePoint"/>
                        <mxPoint x="95" y="375" as="targetPoint"/>
                        <Array as="points">
                            <mxPoint x="236" y="319"/>
                            <mxPoint x="85" y="319"/>
                        </Array>
                    </mxGeometry>
                </mxCell>
                <mxCell id="42" value="NoSQL&lt;br&gt;DocumentDB" style="sketch=0;points=[[0,0,0],[0.25,0,0],[0.5,0,0],[0.75,0,0],[1,0,0],[0,1,0],[0.25,1,0],[0.5,1,0],[0.75,1,0],[1,1,0],[0,0.25,0],[0,0.5,0],[0,0.75,0],[1,0.25,0],[1,0.5,0],[1,0.75,0]];outlineConnect=0;fontColor=#232F3E;gradientColor=#4D72F3;gradientDirection=north;fillColor=#3334B9;strokeColor=#ffffff;dashed=0;verticalLabelPosition=bottom;verticalAlign=top;align=center;html=1;fontSize=12;fontStyle=0;aspect=fixed;shape=mxgraph.aws4.resourceIcon;resIcon=mxgraph.aws4.documentdb_with_mongodb_compatibility;" parent="HX1PcJEUQ6J4BHZRip1N-6" vertex="1">
                    <mxGeometry x="365" y="942" width="50" height="50" as="geometry"/>
                </mxCell>
                <mxCell id="44" value="Server contents" style="points=[[0,0],[0.25,0],[0.5,0],[0.75,0],[1,0],[1,0.25],[1,0.5],[1,0.75],[1,1],[0.75,1],[0.5,1],[0.25,1],[0,1],[0,0.75],[0,0.5],[0,0.25]];outlineConnect=0;gradientColor=none;html=1;whiteSpace=wrap;fontSize=12;fontStyle=0;container=1;pointerEvents=0;collapsible=0;recursiveResize=0;shape=mxgraph.aws4.group;grIcon=mxgraph.aws4.group_on_premise;strokeColor=#5A6C86;fillColor=none;verticalAlign=top;align=left;spacingLeft=30;fontColor=#5A6C86;dashed=0;" parent="HX1PcJEUQ6J4BHZRip1N-6" vertex="1">
                    <mxGeometry x="440" y="184" width="283" height="396" as="geometry"/>
                </mxCell>
                <mxCell id="45" value="Region" style="points=[[0,0],[0.25,0],[0.5,0],[0.75,0],[1,0],[1,0.25],[1,0.5],[1,0.75],[1,1],[0.75,1],[0.5,1],[0.25,1],[0,1],[0,0.75],[0,0.5],[0,0.25]];outlineConnect=0;gradientColor=none;html=1;whiteSpace=wrap;fontSize=12;fontStyle=0;container=1;pointerEvents=0;collapsible=0;recursiveResize=0;shape=mxgraph.aws4.group;grIcon=mxgraph.aws4.group_region;strokeColor=#00A4A6;fillColor=none;verticalAlign=top;align=left;spacingLeft=30;fontColor=#147EBA;dashed=1;" parent="HX1PcJEUQ6J4BHZRip1N-6" vertex="1">
                    <mxGeometry x="410" y="91" width="350" height="829" as="geometry"/>
                </mxCell>
                <mxCell id="46" value="Auto Scaling group" style="points=[[0,0],[0.25,0],[0.5,0],[0.75,0],[1,0],[1,0.25],[1,0.5],[1,0.75],[1,1],[0.75,1],[0.5,1],[0.25,1],[0,1],[0,0.75],[0,0.5],[0,0.25]];outlineConnect=0;gradientColor=none;html=1;whiteSpace=wrap;fontSize=12;fontStyle=0;container=1;pointerEvents=0;collapsible=0;recursiveResize=0;shape=mxgraph.aws4.groupCenter;grIcon=mxgraph.aws4.group_auto_scaling_group;grStroke=1;strokeColor=#D86613;fillColor=none;verticalAlign=top;align=center;fontColor=#D86613;dashed=1;spacingTop=25;" parent="45" vertex="1">
                    <mxGeometry x="9.5" y="121" width="330" height="359" as="geometry"/>
                </mxCell>
                <mxCell id="75" value="EC2 instance contents" style="points=[[0,0],[0.25,0],[0.5,0],[0.75,0],[1,0],[1,0.25],[1,0.5],[1,0.75],[1,1],[0.75,1],[0.5,1],[0.25,1],[0,1],[0,0.75],[0,0.5],[0,0.25]];outlineConnect=0;gradientColor=none;html=1;whiteSpace=wrap;fontSize=12;fontStyle=0;container=1;pointerEvents=0;collapsible=0;recursiveResize=0;shape=mxgraph.aws4.group;grIcon=mxgraph.aws4.group_ec2_instance_contents;strokeColor=#D86613;fillColor=none;verticalAlign=top;align=left;spacingLeft=30;fontColor=#D86613;dashed=0;" parent="46" vertex="1">
                    <mxGeometry x="183.40999999999997" y="219" width="100" height="130" as="geometry"/>
                </mxCell>
                <mxCell id="76" value="Batch Server" style="sketch=0;outlineConnect=0;fontColor=#232F3E;gradientColor=none;fillColor=#D45B07;strokeColor=none;dashed=0;verticalLabelPosition=bottom;verticalAlign=top;align=center;html=1;fontSize=12;fontStyle=0;aspect=fixed;pointerEvents=1;shape=mxgraph.aws4.instance2;" parent="75" vertex="1">
                    <mxGeometry x="26.000000000000014" y="61" width="48" height="48" as="geometry"/>
                </mxCell>
                <mxCell id="78" value="SQS Queue" style="sketch=0;points=[[0,0,0],[0.25,0,0],[0.5,0,0],[0.75,0,0],[1,0,0],[0,1,0],[0.25,1,0],[0.5,1,0],[0.75,1,0],[1,1,0],[0,0.25,0],[0,0.5,0],[0,0.75,0],[1,0.25,0],[1,0.5,0],[1,0.75,0]];outlineConnect=0;fontColor=#232F3E;gradientColor=#FF4F8B;gradientDirection=north;fillColor=#BC1356;strokeColor=#ffffff;dashed=0;verticalLabelPosition=bottom;verticalAlign=top;align=center;html=1;fontSize=12;fontStyle=0;aspect=fixed;shape=mxgraph.aws4.resourceIcon;resIcon=mxgraph.aws4.sqs;" parent="46" vertex="1">
                    <mxGeometry x="71.5" y="246" width="46" height="46" as="geometry"/>
                </mxCell>
                <mxCell id="84" value="" style="edgeStyle=orthogonalEdgeStyle;html=1;endArrow=block;elbow=vertical;startArrow=none;endFill=1;strokeColor=#545B64;rounded=0;exitX=1;exitY=0.5;exitDx=0;exitDy=0;exitPerimeter=0;" parent="46" source="78" target="75" edge="1">
                    <mxGeometry width="100" relative="1" as="geometry">
                        <mxPoint x="116.5" y="269" as="sourcePoint"/>
                        <mxPoint x="190.5" y="284" as="targetPoint"/>
                        <Array as="points">
                            <mxPoint x="117" y="269"/>
                            <mxPoint x="139" y="269"/>
                            <mxPoint x="139" y="284"/>
                        </Array>
                    </mxGeometry>
                </mxCell>
                <mxCell id="89" value="1" style="ellipse;whiteSpace=wrap;html=1;aspect=fixed;strokeWidth=2;fontFamily=Tahoma;spacingBottom=4;spacingRight=2;strokeColor=#d79b00;fillColor=#ffe6cc;fontStyle=1" parent="46" vertex="1">
                    <mxGeometry x="110.5" y="219" width="20" height="20" as="geometry"/>
                </mxCell>
                <mxCell id="48" value="EC2 instance contents" style="points=[[0,0],[0.25,0],[0.5,0],[0.75,0],[1,0],[1,0.25],[1,0.5],[1,0.75],[1,1],[0.75,1],[0.5,1],[0.25,1],[0,1],[0,0.75],[0,0.5],[0,0.25]];outlineConnect=0;gradientColor=none;html=1;whiteSpace=wrap;fontSize=12;fontStyle=0;container=1;pointerEvents=0;collapsible=0;recursiveResize=0;shape=mxgraph.aws4.group;grIcon=mxgraph.aws4.group_ec2_instance_contents;strokeColor=#D86613;fillColor=none;verticalAlign=top;align=left;spacingLeft=30;fontColor=#D86613;dashed=0;" parent="45" vertex="1">
                    <mxGeometry x="54" y="169" width="100" height="130" as="geometry"/>
                </mxCell>
                <mxCell id="49" value="Server" style="sketch=0;outlineConnect=0;fontColor=#232F3E;gradientColor=none;fillColor=#D45B07;strokeColor=none;dashed=0;verticalLabelPosition=bottom;verticalAlign=top;align=center;html=1;fontSize=12;fontStyle=0;aspect=fixed;pointerEvents=1;shape=mxgraph.aws4.instance2;" parent="48" vertex="1">
                    <mxGeometry x="26.000000000000014" y="61" width="48" height="48" as="geometry"/>
                </mxCell>
                <mxCell id="50" value="&lt;div style=&quot;&quot;&gt;&lt;span style=&quot;background-color: initial;&quot;&gt;&amp;nbsp; &amp;nbsp; &amp;nbsp; &amp;nbsp; &amp;nbsp; Database&lt;/span&gt;&lt;/div&gt;" style="fillColor=none;strokeColor=#FF33FF;verticalAlign=top;fontStyle=0;fontColor=#5A6C86;whiteSpace=wrap;html=1;align=left;" parent="45" vertex="1">
                    <mxGeometry x="55" y="512" width="240" height="130" as="geometry"/>
                </mxCell>
                <mxCell id="51" value="" style="sketch=0;points=[[0,0,0],[0.25,0,0],[0.5,0,0],[0.75,0,0],[1,0,0],[0,1,0],[0.25,1,0],[0.5,1,0],[0.75,1,0],[1,1,0],[0,0.25,0],[0,0.5,0],[0,0.75,0],[1,0.25,0],[1,0.5,0],[1,0.75,0]];outlineConnect=0;fontColor=#232F3E;fillColor=#C925D1;strokeColor=#ffffff;dashed=0;verticalLabelPosition=bottom;verticalAlign=top;align=center;html=1;fontSize=12;fontStyle=0;aspect=fixed;shape=mxgraph.aws4.resourceIcon;resIcon=mxgraph.aws4.database;" parent="45" vertex="1">
                    <mxGeometry x="55" y="512" width="30" height="30" as="geometry"/>
                </mxCell>
                <mxCell id="52" value="Master" style="sketch=0;outlineConnect=0;fontColor=#232F3E;gradientColor=none;fillColor=#C925D1;strokeColor=none;dashed=0;verticalLabelPosition=top;verticalAlign=bottom;align=center;html=1;fontSize=12;fontStyle=0;aspect=fixed;pointerEvents=1;shape=mxgraph.aws4.rds_postgresql_instance;labelPosition=center;" parent="45" vertex="1">
                    <mxGeometry x="88" y="554" width="54" height="54" as="geometry"/>
                </mxCell>
                <mxCell id="53" value="Load Balancer" style="outlineConnect=0;dashed=0;verticalLabelPosition=bottom;verticalAlign=top;align=center;html=1;shape=mxgraph.aws3.application_load_balancer;fillColor=#F58534;gradientColor=none;" parent="45" vertex="1">
                    <mxGeometry x="150.08" y="10" width="49.83" height="52" as="geometry"/>
                </mxCell>
                <mxCell id="54" value="EC2 instance contents" style="points=[[0,0],[0.25,0],[0.5,0],[0.75,0],[1,0],[1,0.25],[1,0.5],[1,0.75],[1,1],[0.75,1],[0.5,1],[0.25,1],[0,1],[0,0.75],[0,0.5],[0,0.25]];outlineConnect=0;gradientColor=none;html=1;whiteSpace=wrap;fontSize=12;fontStyle=0;container=1;pointerEvents=0;collapsible=0;recursiveResize=0;shape=mxgraph.aws4.group;grIcon=mxgraph.aws4.group_ec2_instance_contents;strokeColor=#D86613;fillColor=none;verticalAlign=top;align=left;spacingLeft=30;fontColor=#D86613;dashed=0;" parent="45" vertex="1">
                    <mxGeometry x="192.91" y="168" width="100" height="130" as="geometry"/>
                </mxCell>
                <mxCell id="55" value="Server" style="sketch=0;outlineConnect=0;fontColor=#232F3E;gradientColor=none;fillColor=#D45B07;strokeColor=none;dashed=0;verticalLabelPosition=bottom;verticalAlign=top;align=center;html=1;fontSize=12;fontStyle=0;aspect=fixed;pointerEvents=1;shape=mxgraph.aws4.instance2;" parent="54" vertex="1">
                    <mxGeometry x="26.000000000000014" y="61" width="48" height="48" as="geometry"/>
                </mxCell>
                <mxCell id="56" value="" style="edgeStyle=orthogonalEdgeStyle;html=1;endArrow=block;elbow=vertical;startArrow=block;startFill=1;endFill=1;strokeColor=#545B64;rounded=0;exitX=0;exitY=0.5;exitDx=0;exitDy=0;entryX=0.5;entryY=0;entryDx=0;entryDy=0;exitPerimeter=0;" parent="45" source="53" target="48" edge="1">
                    <mxGeometry width="100" relative="1" as="geometry">
                        <mxPoint x="173" y="-70" as="sourcePoint"/>
                        <mxPoint x="172.9949999999999" y="20" as="targetPoint"/>
                    </mxGeometry>
                </mxCell>
                <mxCell id="57" value="" style="edgeStyle=orthogonalEdgeStyle;html=1;endArrow=block;elbow=vertical;startArrow=block;startFill=1;endFill=1;strokeColor=#545B64;rounded=0;exitX=0.5;exitY=0;exitDx=0;exitDy=0;entryX=1;entryY=0.5;entryDx=0;entryDy=0;entryPerimeter=0;" parent="45" source="54" target="53" edge="1">
                    <mxGeometry width="100" relative="1" as="geometry">
                        <mxPoint x="148.07999999999993" y="46" as="sourcePoint"/>
                        <mxPoint x="105" y="92" as="targetPoint"/>
                    </mxGeometry>
                </mxCell>
                <mxCell id="58" value="Slave" style="sketch=0;outlineConnect=0;fontColor=#232F3E;gradientColor=none;fillColor=#C925D1;strokeColor=none;dashed=0;verticalLabelPosition=top;verticalAlign=bottom;align=center;html=1;fontSize=12;fontStyle=0;aspect=fixed;pointerEvents=1;shape=mxgraph.aws4.rds_postgresql_instance;labelPosition=center;" parent="45" vertex="1">
                    <mxGeometry x="208" y="554" width="54" height="54" as="geometry"/>
                </mxCell>
                <mxCell id="59" value="Sync" style="edgeStyle=orthogonalEdgeStyle;html=1;endArrow=block;elbow=vertical;startArrow=block;startFill=1;endFill=1;strokeColor=#545B64;rounded=0;" parent="45" source="52" target="58" edge="1">
                    <mxGeometry width="100" relative="1" as="geometry">
                        <mxPoint x="-65" y="542" as="sourcePoint"/>
                        <mxPoint x="35" y="542" as="targetPoint"/>
                    </mxGeometry>
                </mxCell>
                <mxCell id="60" value="" style="html=1;endArrow=block;elbow=vertical;startArrow=none;endFill=1;strokeColor=#545B64;rounded=0;exitX=0.25;exitY=1;exitDx=0;exitDy=0;" parent="45" source="50" edge="1">
                    <mxGeometry width="100" relative="1" as="geometry">
                        <mxPoint x="-65" y="542" as="sourcePoint"/>
                        <mxPoint x="235" y="612" as="targetPoint"/>
                    </mxGeometry>
                </mxCell>
                <mxCell id="61" value="Write" style="edgeStyle=orthogonalEdgeStyle;html=1;endArrow=block;elbow=vertical;startArrow=none;endFill=1;strokeColor=#545B64;rounded=0;exitX=0.25;exitY=1;exitDx=0;exitDy=0;" parent="45" source="50" edge="1">
                    <mxGeometry width="100" relative="1" as="geometry">
                        <mxPoint x="-65" y="542" as="sourcePoint"/>
                        <mxPoint x="115" y="612" as="targetPoint"/>
                        <Array as="points">
                            <mxPoint x="115" y="612"/>
                            <mxPoint x="115" y="612"/>
                        </Array>
                    </mxGeometry>
                </mxCell>
                <mxCell id="62" value="Redis Cache" style="sketch=0;points=[[0,0,0],[0.25,0,0],[0.5,0,0],[0.75,0,0],[1,0,0],[0,1,0],[0.25,1,0],[0.5,1,0],[0.75,1,0],[1,1,0],[0,0.25,0],[0,0.5,0],[0,0.75,0],[1,0.25,0],[1,0.5,0],[1,0.75,0]];outlineConnect=0;fontColor=#232F3E;gradientColor=#4D72F3;gradientDirection=north;fillColor=#3334B9;strokeColor=#ffffff;dashed=0;verticalLabelPosition=bottom;verticalAlign=top;align=center;html=1;fontSize=12;fontStyle=0;aspect=fixed;shape=mxgraph.aws4.resourceIcon;resIcon=mxgraph.aws4.memorydb_for_redis;" parent="45" vertex="1">
                    <mxGeometry x="150.5" y="731" width="49" height="49" as="geometry"/>
                </mxCell>
                <mxCell id="85" value="" style="html=1;endArrow=block;elbow=vertical;startArrow=none;endFill=1;strokeColor=#545B64;rounded=0;exitX=0.5;exitY=1;exitDx=0;exitDy=0;" parent="45" source="48" target="78" edge="1">
                    <mxGeometry width="100" relative="1" as="geometry">
                        <mxPoint x="110" y="320" as="sourcePoint"/>
                        <mxPoint x="202.90999999999997" y="415" as="targetPoint"/>
                    </mxGeometry>
                </mxCell>
                <mxCell id="86" value="" style="edgeStyle=orthogonalEdgeStyle;html=1;endArrow=block;elbow=vertical;startArrow=none;endFill=1;strokeColor=#545B64;rounded=0;exitX=0.5;exitY=1;exitDx=0;exitDy=0;" parent="45" source="54" edge="1">
                    <mxGeometry width="100" relative="1" as="geometry">
                        <mxPoint x="114" y="309" as="sourcePoint"/>
                        <mxPoint x="103" y="367" as="targetPoint"/>
                        <Array as="points">
                            <mxPoint x="243" y="330"/>
                            <mxPoint x="103" y="330"/>
                        </Array>
                    </mxGeometry>
                </mxCell>
                <mxCell id="64" value="" style="html=1;endArrow=block;elbow=vertical;startArrow=none;endFill=1;strokeColor=#545B64;rounded=0;exitX=0.75;exitY=1;exitDx=0;exitDy=0;" parent="HX1PcJEUQ6J4BHZRip1N-6" source="50" edge="1">
                    <mxGeometry width="100" relative="1" as="geometry">
                        <mxPoint x="535" y="742.9999999999999" as="sourcePoint"/>
                        <mxPoint x="525" y="703" as="targetPoint"/>
                    </mxGeometry>
                </mxCell>
                <mxCell id="65" value="Read" style="html=1;endArrow=block;elbow=vertical;startArrow=none;endFill=1;strokeColor=#545B64;rounded=0;" parent="HX1PcJEUQ6J4BHZRip1N-6" edge="1">
                    <mxGeometry width="100" relative="1" as="geometry">
                        <mxPoint x="645" y="733" as="sourcePoint"/>
                        <mxPoint x="645" y="703" as="targetPoint"/>
                    </mxGeometry>
                </mxCell>
                <mxCell id="66" value="Query" style="edgeStyle=orthogonalEdgeStyle;html=1;endArrow=block;elbow=vertical;startArrow=block;startFill=1;endFill=1;strokeColor=#545B64;rounded=0;entryX=0.5;entryY=1;entryDx=0;entryDy=0;exitX=1;exitY=1;exitDx=0;exitDy=0;" parent="HX1PcJEUQ6J4BHZRip1N-6" source="44" target="50" edge="1">
                    <mxGeometry x="-0.0003" width="100" relative="1" as="geometry">
                        <mxPoint x="680" y="422" as="sourcePoint"/>
                        <mxPoint x="919.1199999999999" y="271" as="targetPoint"/>
                        <Array as="points">
                            <mxPoint x="723" y="771"/>
                            <mxPoint x="585" y="771"/>
                        </Array>
                        <mxPoint as="offset"/>
                    </mxGeometry>
                </mxCell>
                <mxCell id="67" value="" style="edgeStyle=orthogonalEdgeStyle;html=1;endArrow=block;elbow=vertical;startArrow=block;startFill=1;endFill=1;strokeColor=#545B64;rounded=0;entryX=0.5;entryY=0;entryDx=0;entryDy=0;entryPerimeter=0;exitX=0;exitY=1;exitDx=0;exitDy=0;" parent="HX1PcJEUQ6J4BHZRip1N-6" source="44" target="62" edge="1">
                    <mxGeometry width="100" relative="1" as="geometry">
                        <mxPoint x="700" y="422" as="sourcePoint"/>
                        <mxPoint x="542" y="392.5" as="targetPoint"/>
                        <Array as="points">
                            <mxPoint x="440" y="781"/>
                            <mxPoint x="585" y="781"/>
                        </Array>
                    </mxGeometry>
                </mxCell>
                <mxCell id="69" value="Route" style="outlineConnect=0;dashed=0;verticalLabelPosition=bottom;verticalAlign=top;align=center;html=1;shape=mxgraph.aws3.route_53;fillColor=#F58536;gradientColor=none;" parent="HX1PcJEUQ6J4BHZRip1N-6" vertex="1">
                    <mxGeometry x="360" y="11" width="60" height="60" as="geometry"/>
                </mxCell>
                <mxCell id="70" value="" style="edgeStyle=orthogonalEdgeStyle;html=1;endArrow=block;elbow=vertical;startArrow=block;startFill=1;endFill=1;strokeColor=#545B64;rounded=0;exitX=0.5;exitY=0;exitDx=0;exitDy=0;exitPerimeter=0;entryX=0;entryY=0.27;entryDx=0;entryDy=0;entryPerimeter=0;" parent="HX1PcJEUQ6J4BHZRip1N-6" source="2" target="69" edge="1">
                    <mxGeometry width="100" relative="1" as="geometry">
                        <mxPoint x="320" y="1" as="sourcePoint"/>
                        <mxPoint x="420" y="1" as="targetPoint"/>
                    </mxGeometry>
                </mxCell>
                <mxCell id="71" value="" style="edgeStyle=orthogonalEdgeStyle;html=1;endArrow=block;elbow=vertical;startArrow=block;startFill=1;endFill=1;strokeColor=#545B64;rounded=0;exitX=0.5;exitY=0;exitDx=0;exitDy=0;exitPerimeter=0;entryX=1;entryY=0.5;entryDx=0;entryDy=0;entryPerimeter=0;" parent="HX1PcJEUQ6J4BHZRip1N-6" source="53" target="69" edge="1">
                    <mxGeometry width="100" relative="1" as="geometry">
                        <mxPoint x="198.9949999999999" y="112" as="sourcePoint"/>
                        <mxPoint x="370" y="37.200000000000045" as="targetPoint"/>
                    </mxGeometry>
                </mxCell>
                <mxCell id="68" value="" style="edgeStyle=orthogonalEdgeStyle;html=1;endArrow=block;elbow=vertical;startArrow=block;startFill=1;endFill=1;strokeColor=#545B64;rounded=0;exitX=0;exitY=0.75;exitDx=0;exitDy=0;" parent="HX1PcJEUQ6J4BHZRip1N-6" source="44" edge="1">
                    <mxGeometry width="100" relative="1" as="geometry">
                        <mxPoint x="340" y="373.5" as="sourcePoint"/>
                        <mxPoint x="400" y="941" as="targetPoint"/>
                        <Array as="points">
                            <mxPoint x="400" y="481"/>
                        </Array>
                    </mxGeometry>
                </mxCell>
                <mxCell id="91" value="Monitoring" style="editableCssRules=.*;shape=image;verticalLabelPosition=bottom;labelBackgroundColor=none;verticalAlign=top;aspect=fixed;imageAspect=0;image=data:image/svg+xml,PHN2ZyB4bWxucz0iaHR0cDovL3d3dy53My5vcmcvMjAwMC9zdmciIHhtbG5zOnY9Imh0dHBzOi8vdmVjdGEuaW8vbmFubyIgd2lkdGg9IjIwIiBoZWlnaHQ9IjEzLjUyOTk5OTczMjk3MTE5MSIgdmlld0JveD0iLTIuOTMyMDk3ODk3ODEyMDE0ZS05IC01LjI1ODAxNTA0MTgzNzk1NmUtMTUgMjAgMTMuNTI5OTk5NzMyOTcxMTkxIj4mI3hhOwk8c3R5bGUgdHlwZT0idGV4dC9jc3MiPiYjeGE7CS5zdDB7ZmlsbDojNDI4NWY0O30mI3hhOwkuc3Qxe2ZpbGw6IzY2OWRmNjt9JiN4YTsJPC9zdHlsZT4mI3hhOwk8cGF0aCBjbGFzcz0ic3QxIiBkPSJNOC44MyAxMC41OGgyLjMzdjIuNjRIOC44M3oiLz4mI3hhOwk8cGF0aCBjbGFzcz0ic3QwIiBkPSJNMTYuNDggOC42MWEuNTYuNTYgMCAwIDEtLjQtLjE3TDEyIDQuMjEgOS4yNiA3LjFhLjU3LjU3IDAgMCAxLS43Ni4wNUw2LjQyIDUuNDdsLTIuMiAyLjkyYS41Ni41NiAwIDAgMS0uNDUuMjJIMHYxLjcxYS43NS43NSAwIDAgMCAuNzQuNzVoMTguNTJhLjc1Ljc1IDAgMCAwIC43NC0uNzVWOC42MXoiLz4mI3hhOwk8cGF0aCBjbGFzcz0ic3QxIiBkPSJNMy41IDcuNWwyLjM4LTMuMTZhLjU1LjU1IDAgMCAxIC4zNy0uMjIuNjMuNjMgMCAwIDEgLjQyLjEybDIuMTIgMS43MiAyLjgtMi45NGEuNTQuNTQgMCAwIDEgLjQtLjE3aDBhLjU0LjU0IDAgMCAxIC40LjE3bDQuMzMgNC40OEgyMFYuNzRhLjc0Ljc0IDAgMCAwLS43NC0uNzRILjc0QS43NC43NCAwIDAgMCAwIC43NHY2LjgxeiIvPiYjeGE7CTxyZWN0IGNsYXNzPSJzdDAiIHg9IjYuNjciIHk9IjEyLjkyIiB3aWR0aD0iNi42NyIgaGVpZ2h0PSIuNjEiIHJ4PSIuMyIvPiYjeGE7PC9zdmc+;" parent="HX1PcJEUQ6J4BHZRip1N-6" vertex="1">
                    <mxGeometry x="100" y="966.75" width="46.43" height="32.5" as="geometry"/>
                </mxCell>
                <mxCell id="92" value="Log" style="verticalLabelPosition=bottom;sketch=0;html=1;fillColor=#6ABD46;strokeColor=#ffffff;verticalAlign=top;align=center;points=[[0.085,0.085,0],[0.915,0.085,0],[0.915,0.915,0],[0.085,0.915,0],[0.25,0,0],[0.5,0,0],[0.75,0,0],[1,0.25,0],[1,0.5,0],[1,0.75,0],[0.75,1,0],[0.5,1,0],[0.25,1,0],[0,0.75,0],[0,0.5,0],[0,0.25,0]];pointerEvents=1;shape=mxgraph.cisco_safe.compositeIcon;bgIcon=mxgraph.cisco_safe.architecture.generic_appliance;resIcon=mxgraph.cisco_safe.architecture.log_collector;" parent="HX1PcJEUQ6J4BHZRip1N-6" vertex="1">
                    <mxGeometry x="30" y="961" width="40" height="38" as="geometry"/>
                </mxCell>
                <mxCell id="93" value="Metric" style="image;html=1;image=img/lib/clip_art/finance/Pie_Chart_128x128.png;labelBackgroundColor=none;" parent="HX1PcJEUQ6J4BHZRip1N-6" vertex="1">
                    <mxGeometry x="176.75" y="960" width="33.25" height="39" as="geometry"/>
                </mxCell>
                <mxCell id="94" value="Automation" style="verticalLabelPosition=bottom;html=1;verticalAlign=top;align=center;strokeColor=none;fillColor=#00BEF2;shape=mxgraph.azure.automation;pointerEvents=1;" parent="HX1PcJEUQ6J4BHZRip1N-6" vertex="1">
                    <mxGeometry x="238" y="966.75" width="38" height="32" as="geometry"/>
                </mxCell>
                <mxCell id="96" value="2" style="ellipse;whiteSpace=wrap;html=1;aspect=fixed;strokeWidth=2;fontFamily=Tahoma;spacingBottom=4;spacingRight=2;strokeColor=#d79b00;fillColor=#ffe6cc;fontStyle=1" parent="HX1PcJEUQ6J4BHZRip1N-6" vertex="1">
                    <mxGeometry x="320" y="930" width="20" height="20" as="geometry"/>
                </mxCell>
                <mxCell id="HX1PcJEUQ6J4BHZRip1N-12" value="Domina to IP" style="edgeStyle=orthogonalEdgeStyle;html=1;endArrow=block;elbow=vertical;startArrow=block;startFill=1;endFill=1;strokeColor=#545B64;rounded=0;exitX=1;exitY=0.5;exitDx=0;exitDy=0;entryX=0;entryY=0.5;entryDx=0;entryDy=0;" parent="1" source="HX1PcJEUQ6J4BHZRip1N-5" target="HX1PcJEUQ6J4BHZRip1N-1" edge="1">
                    <mxGeometry width="100" relative="1" as="geometry">
                        <mxPoint x="500" y="220" as="sourcePoint"/>
                        <mxPoint x="600" y="220" as="targetPoint"/>
                    </mxGeometry>
                </mxCell>
                <mxCell id="HX1PcJEUQ6J4BHZRip1N-13" value="" style="edgeStyle=orthogonalEdgeStyle;html=1;endArrow=block;elbow=vertical;startArrow=block;startFill=1;endFill=1;strokeColor=#545B64;rounded=0;exitX=0.5;exitY=1;exitDx=0;exitDy=0;entryX=0.5;entryY=0;entryDx=0;entryDy=0;entryPerimeter=0;" parent="1" source="HX1PcJEUQ6J4BHZRip1N-5" target="69" edge="1">
                    <mxGeometry width="100" relative="1" as="geometry">
                        <mxPoint x="470" y="270" as="sourcePoint"/>
                        <mxPoint x="570" y="270" as="targetPoint"/>
                    </mxGeometry>
                </mxCell>
                <mxCell id="37" value="HTTP / REST API" style="edgeLabel;html=1;align=center;verticalAlign=middle;resizable=0;points=[];" parent="HX1PcJEUQ6J4BHZRip1N-13" vertex="1" connectable="0">
                    <mxGeometry x="-0.2605" y="-2" relative="1" as="geometry">
                        <mxPoint as="offset"/>
                    </mxGeometry>
                </mxCell>
                <mxCell id="17" value="" style="html=1;endArrow=block;elbow=vertical;startArrow=none;endFill=1;strokeColor=#545B64;rounded=0;exitX=0.75;exitY=1;exitDx=0;exitDy=0;" parent="1" source="HX1PcJEUQ6J4BHZRip1N-18" edge="1">
                    <mxGeometry width="100" relative="1" as="geometry">
                        <mxPoint x="178" y="982.9999999999999" as="sourcePoint"/>
                        <mxPoint x="168" y="943" as="targetPoint"/>
                    </mxGeometry>
                </mxCell>
                <mxCell id="18" value="Read" style="html=1;endArrow=block;elbow=vertical;startArrow=none;endFill=1;strokeColor=#545B64;rounded=0;" parent="1" edge="1">
                    <mxGeometry width="100" relative="1" as="geometry">
                        <mxPoint x="288" y="973" as="sourcePoint"/>
                        <mxPoint x="288" y="943" as="targetPoint"/>
                    </mxGeometry>
                </mxCell>
                <mxCell id="27" value="CDN" style="fillColor=#EFF0F3;strokeColor=none;dashed=0;verticalAlign=top;fontStyle=0;fontColor=#232F3D;whiteSpace=wrap;html=1;" parent="1" vertex="1">
                    <mxGeometry x="520" y="130" width="200" height="80" as="geometry"/>
                </mxCell>
                <mxCell id="31" value="" style="aspect=fixed;html=1;points=[];align=center;image;fontSize=12;image=img/lib/azure2/networking/CDN_Profiles.svg;" parent="1" vertex="1">
                    <mxGeometry x="586" y="160" width="68" height="40" as="geometry"/>
                </mxCell>
                <mxCell id="35" value="" style="edgeStyle=orthogonalEdgeStyle;html=1;endArrow=block;elbow=vertical;startArrow=block;startFill=1;endFill=1;strokeColor=#545B64;rounded=0;exitX=1;exitY=0.5;exitDx=0;exitDy=0;entryX=0;entryY=0.5;entryDx=0;entryDy=0;" parent="1" source="HX1PcJEUQ6J4BHZRip1N-5" target="27" edge="1">
                    <mxGeometry width="100" relative="1" as="geometry">
                        <mxPoint x="370" y="110" as="sourcePoint"/>
                        <mxPoint x="530" y="90" as="targetPoint"/>
                    </mxGeometry>
                </mxCell>
                <mxCell id="9" value="Query" style="edgeStyle=orthogonalEdgeStyle;html=1;endArrow=block;elbow=vertical;startArrow=block;startFill=1;endFill=1;strokeColor=#545B64;rounded=0;entryX=0.5;entryY=1;entryDx=0;entryDy=0;" parent="1" target="HX1PcJEUQ6J4BHZRip1N-18" edge="1">
                    <mxGeometry x="-0.0003" width="100" relative="1" as="geometry">
                        <mxPoint x="350" y="820" as="sourcePoint"/>
                        <mxPoint x="569.1199999999999" y="511" as="targetPoint"/>
                        <Array as="points">
                            <mxPoint x="350" y="1010"/>
                            <mxPoint x="208" y="1010"/>
                        </Array>
                        <mxPoint as="offset"/>
                    </mxGeometry>
                </mxCell>
                <mxCell id="43" value="" style="edgeStyle=orthogonalEdgeStyle;html=1;endArrow=block;elbow=vertical;startArrow=block;startFill=1;endFill=1;strokeColor=#545B64;rounded=0;entryX=0.5;entryY=0;entryDx=0;entryDy=0;entryPerimeter=0;exitX=1;exitY=0.75;exitDx=0;exitDy=0;" parent="1" source="38" target="42" edge="1">
                    <mxGeometry width="100" relative="1" as="geometry">
                        <mxPoint x="218.5" y="609.9999999999998" as="sourcePoint"/>
                        <mxPoint x="218.5" y="649" as="targetPoint"/>
                        <Array as="points">
                            <mxPoint x="410" y="720"/>
                        </Array>
                    </mxGeometry>
                </mxCell>
                <mxCell id="34" value="" style="edgeStyle=orthogonalEdgeStyle;html=1;endArrow=block;elbow=vertical;startArrow=block;startFill=1;endFill=1;strokeColor=#545B64;rounded=0;entryX=0.5;entryY=0;entryDx=0;entryDy=0;entryPerimeter=0;exitX=0;exitY=1;exitDx=0;exitDy=0;" parent="1" source="38" target="32" edge="1">
                    <mxGeometry width="100" relative="1" as="geometry">
                        <mxPoint x="350" y="662" as="sourcePoint"/>
                        <mxPoint x="192" y="632.5" as="targetPoint"/>
                        <Array as="points">
                            <mxPoint x="67" y="1040"/>
                            <mxPoint x="205" y="1040"/>
                        </Array>
                    </mxGeometry>
                </mxCell>
                <mxCell id="97" value="" style="rounded=0;whiteSpace=wrap;html=1;fillColor=none;" vertex="1" parent="1">
                    <mxGeometry x="10" y="20" width="810" height="1270" as="geometry"/>
                </mxCell>
            </root>
        </mxGraphModel>
    </diagram>
</mxfile>